<mxfile host="app.diagrams.net" modified="2020-05-15T02:17:56.256Z" agent="5.0 (Windows NT 10.0; Win64; x64) AppleWebKit/537.36 (KHTML, like Gecko) Chrome/81.0.4044.138 Safari/537.36" etag="7yQfRchXME3OhtqiyvNl" version="13.0.3" type="github">
  <diagram id="TQTGEi7yeXhKhnYv3sZF" name="Page-1">
    <mxGraphModel dx="1519" dy="744" grid="1" gridSize="10" guides="1" tooltips="1" connect="1" arrows="1" fold="1" page="1" pageScale="1" pageWidth="827" pageHeight="1169" math="0" shadow="0">
      <root>
        <mxCell id="0" />
        <mxCell id="1" parent="0" />
        <mxCell id="Nog25cpEXFCQ-dZ1QYx8-1" value="" style="shape=cylinder;whiteSpace=wrap;html=1;boundedLbl=1;backgroundOutline=1;fillColor=#C3ABD0;" vertex="1" parent="1">
          <mxGeometry x="640" y="237.5" width="120" height="165" as="geometry" />
        </mxCell>
        <mxCell id="Nog25cpEXFCQ-dZ1QYx8-2" value="" style="rounded=0;whiteSpace=wrap;html=1;fillColor=#99FF99;" vertex="1" parent="1">
          <mxGeometry x="40" y="200" width="140" height="80" as="geometry" />
        </mxCell>
        <mxCell id="Nog25cpEXFCQ-dZ1QYx8-3" value="" style="rounded=0;whiteSpace=wrap;html=1;fillColor=#99FF99;" vertex="1" parent="1">
          <mxGeometry x="40" y="360" width="140" height="80" as="geometry" />
        </mxCell>
        <mxCell id="Nog25cpEXFCQ-dZ1QYx8-4" value="" style="rounded=0;whiteSpace=wrap;html=1;fillColor=#66B2FF;" vertex="1" parent="1">
          <mxGeometry x="320" y="280" width="140" height="80" as="geometry" />
        </mxCell>
        <mxCell id="Nog25cpEXFCQ-dZ1QYx8-5" value="Web Client&amp;nbsp;" style="text;html=1;strokeColor=none;fillColor=none;align=center;verticalAlign=middle;whiteSpace=wrap;rounded=0;" vertex="1" parent="1">
          <mxGeometry x="70" y="230" width="90" height="20" as="geometry" />
        </mxCell>
        <mxCell id="Nog25cpEXFCQ-dZ1QYx8-6" value="MobileClient&amp;nbsp;" style="text;html=1;strokeColor=none;fillColor=none;align=center;verticalAlign=middle;whiteSpace=wrap;rounded=0;" vertex="1" parent="1">
          <mxGeometry x="65" y="390" width="90" height="20" as="geometry" />
        </mxCell>
        <mxCell id="Nog25cpEXFCQ-dZ1QYx8-7" value="REST API" style="text;html=1;strokeColor=none;fillColor=none;align=center;verticalAlign=middle;whiteSpace=wrap;rounded=0;" vertex="1" parent="1">
          <mxGeometry x="345" y="310" width="90" height="20" as="geometry" />
        </mxCell>
        <mxCell id="Nog25cpEXFCQ-dZ1QYx8-8" value="Off-chain&lt;br&gt;Repository" style="text;html=1;strokeColor=none;fillColor=none;align=center;verticalAlign=middle;whiteSpace=wrap;rounded=0;" vertex="1" parent="1">
          <mxGeometry x="655" y="330" width="90" height="20" as="geometry" />
        </mxCell>
        <mxCell id="Nog25cpEXFCQ-dZ1QYx8-9" value="" style="endArrow=classic;startArrow=classic;html=1;exitX=1;exitY=0.5;exitDx=0;exitDy=0;entryX=0;entryY=0.5;entryDx=0;entryDy=0;" edge="1" parent="1" source="Nog25cpEXFCQ-dZ1QYx8-2" target="Nog25cpEXFCQ-dZ1QYx8-4">
          <mxGeometry width="50" height="50" relative="1" as="geometry">
            <mxPoint x="390" y="410" as="sourcePoint" />
            <mxPoint x="440" y="360" as="targetPoint" />
          </mxGeometry>
        </mxCell>
        <mxCell id="Nog25cpEXFCQ-dZ1QYx8-10" value="" style="endArrow=classic;startArrow=classic;html=1;exitX=1;exitY=0.5;exitDx=0;exitDy=0;" edge="1" parent="1">
          <mxGeometry width="50" height="50" relative="1" as="geometry">
            <mxPoint x="180" y="402.5" as="sourcePoint" />
            <mxPoint x="317" y="330" as="targetPoint" />
          </mxGeometry>
        </mxCell>
        <mxCell id="Nog25cpEXFCQ-dZ1QYx8-11" value="" style="endArrow=classic;startArrow=classic;html=1;exitX=1;exitY=0.5;exitDx=0;exitDy=0;" edge="1" parent="1" source="Nog25cpEXFCQ-dZ1QYx8-4">
          <mxGeometry width="50" height="50" relative="1" as="geometry">
            <mxPoint x="390" y="410" as="sourcePoint" />
            <mxPoint x="639" y="320" as="targetPoint" />
          </mxGeometry>
        </mxCell>
        <mxCell id="Nog25cpEXFCQ-dZ1QYx8-13" value="" style="rounded=1;whiteSpace=wrap;html=1;" vertex="1" parent="1">
          <mxGeometry x="80" y="480" width="640" height="100" as="geometry" />
        </mxCell>
        <mxCell id="Nog25cpEXFCQ-dZ1QYx8-14" value="" style="rounded=0;whiteSpace=wrap;html=1;fillColor=#000000;" vertex="1" parent="1">
          <mxGeometry x="160" y="495" width="140" height="70" as="geometry" />
        </mxCell>
        <mxCell id="Nog25cpEXFCQ-dZ1QYx8-15" value="" style="rounded=0;whiteSpace=wrap;html=1;fillColor=#FFFF66;" vertex="1" parent="1">
          <mxGeometry x="460" y="495" width="140" height="70" as="geometry" />
        </mxCell>
        <mxCell id="Nog25cpEXFCQ-dZ1QYx8-16" value="" style="endArrow=classic;startArrow=classic;html=1;exitX=1;exitY=0.5;exitDx=0;exitDy=0;entryX=0;entryY=0.5;entryDx=0;entryDy=0;" edge="1" parent="1" source="Nog25cpEXFCQ-dZ1QYx8-14" target="Nog25cpEXFCQ-dZ1QYx8-15">
          <mxGeometry width="50" height="50" relative="1" as="geometry">
            <mxPoint x="390" y="410" as="sourcePoint" />
            <mxPoint x="440" y="360" as="targetPoint" />
          </mxGeometry>
        </mxCell>
        <mxCell id="Nog25cpEXFCQ-dZ1QYx8-17" value="HTML / JSON" style="text;html=1;strokeColor=none;fillColor=none;align=center;verticalAlign=middle;whiteSpace=wrap;rounded=0;" vertex="1" parent="1">
          <mxGeometry x="170" y="310" width="80" height="20" as="geometry" />
        </mxCell>
        <mxCell id="Nog25cpEXFCQ-dZ1QYx8-18" value="Hyperleger Fabric" style="text;html=1;strokeColor=#FFFFFF;fillColor=#FFFFFF;align=center;verticalAlign=middle;whiteSpace=wrap;rounded=0;" vertex="1" parent="1">
          <mxGeometry x="190" y="515" width="90" height="30" as="geometry" />
        </mxCell>
        <mxCell id="Nog25cpEXFCQ-dZ1QYx8-19" value="Transaction Processors" style="text;html=1;strokeColor=#FFFFFF;fillColor=#FFFFFF;align=center;verticalAlign=middle;whiteSpace=wrap;rounded=0;" vertex="1" parent="1">
          <mxGeometry x="485" y="515" width="90" height="30" as="geometry" />
        </mxCell>
        <mxCell id="Nog25cpEXFCQ-dZ1QYx8-20" value="" style="endArrow=classic;startArrow=classic;html=1;entryX=0.5;entryY=1;entryDx=0;entryDy=0;" edge="1" parent="1" target="Nog25cpEXFCQ-dZ1QYx8-4">
          <mxGeometry width="50" height="50" relative="1" as="geometry">
            <mxPoint x="390" y="479" as="sourcePoint" />
            <mxPoint x="440" y="360" as="targetPoint" />
          </mxGeometry>
        </mxCell>
      </root>
    </mxGraphModel>
  </diagram>
</mxfile>
